<svg enable-background="new 0 0 211 251.3" viewBox="0 0 211 251.3" xmlns="http://www.w3.org/2000/svg" xmlns:xlink="http://www.w3.org/1999/xlink"><linearGradient id="a"><stop offset="0" stop-color="#635efa"/><stop offset="1" stop-color="#01b3fb"/></linearGradient><linearGradient id="b" gradientTransform="matrix(1 0 0 -1 0 -301.43)" gradientUnits="userSpaceOnUse" x1="42.8644" x2="144.6349" xlink:href="#a" y1="-345.0142" y2="-345.0142"/><linearGradient id="c" gradientTransform="matrix(1 0 0 -1 0 -301.43)" gradientUnits="userSpaceOnUse" x1="68.16" x2="91.08" xlink:href="#a" y1="-312.93" y2="-312.93"/><linearGradient id="d" gradientTransform="matrix(1 0 0 -1 0 -301.43)" gradientUnits="userSpaceOnUse" x1="159.9" x2="182.82" xlink:href="#a" y1="-312.93" y2="-312.93"/><linearGradient id="e" gradientTransform="matrix(1 0 0 -1 0 -301.43)" gradientUnits="userSpaceOnUse" x1="4.23" x2="27.15" xlink:href="#a" y1="-379.23" y2="-379.23"/><linearGradient id="f" gradientTransform="matrix(1 0 0 -1 0 -301.43)" gradientUnits="userSpaceOnUse" x1="59.68" x2="82.6" xlink:href="#a" y1="-447.13" y2="-447.13"/><linearGradient id="g" gradientTransform="matrix(1 0 0 -1 0 -301.43)" gradientUnits="userSpaceOnUse" x1="4.23" x2="27.15" xlink:href="#a" y1="-471.13" y2="-471.13"/><linearGradient id="h" gradientTransform="matrix(1 0 0 -1 0 -301.43)" gradientUnits="userSpaceOnUse" x1="139.5" x2="162.42" xlink:href="#a" y1="-479.93" y2="-479.93"/><linearGradient id="i" gradientTransform="matrix(1 0 0 -1 0 -301.43)" gradientUnits="userSpaceOnUse" x1="69.89" x2="92.81" xlink:href="#a" y1="-535.63" y2="-535.63"/><linearGradient id="j" gradientTransform="matrix(1 0 0 -1 0 -301.43)" gradientUnits="userSpaceOnUse" x1="14.628" x2="82.218" xlink:href="#a" y1="-450.2456" y2="-450.2456"/><linearGradient id="k" gradientTransform="matrix(1 0 0 -1 0 -301.43)" gradientUnits="userSpaceOnUse" x1="93.6875" x2="185.0901" xlink:href="#a" y1="-507.9082" y2="-507.9082"/><path d="m69.1 69.5c-3.1 1.6-14.9 5.5-23.3-3.9-4.8-5.4-3.7-20.5 3.2-24.7 4.6-2.9 14.5-5.7 21.3 0s7.9 14.4 14.3 18.1c6.1 3.5 13.4 1.6 20-3.9s10.1-7.9 8.4-16.5-5.1-18.5 1.7-24.9 16.4-4.4 20-2.9c5.4 2.3 11 9.5 9.9 19.8s-14.5 11.8-20.6 13.7-8.2 5.5-8.8 9.7c-.5 3.7 1.4 12.3-1.3 18.5-1.1 2.5-3.2 6-9.1 5.3-5.6-.6-17-13.8-22.2-13.6s-10 3.5-13.5 5.3z" fill="url(#b)"/><circle cx="79.6" cy="11.5" fill="url(#c)" r="11.5"/><circle cx="171.4" cy="11.5" fill="url(#d)" r="11.5"/><circle cx="15.7" cy="77.8" fill="url(#e)" r="11.5"/><circle cx="71.1" cy="145.7" fill="url(#f)" r="11.5"/><circle cx="15.7" cy="169.7" fill="url(#g)" r="11.5"/><circle cx="151" cy="178.5" fill="url(#h)" r="11.5"/><circle cx="81.3" cy="234.2" fill="url(#i)" r="11.5"/><path d="m35.7 106.8c-3.7-1-6.9-3.4-11.9-1-4 1.9-6.5 6-8.1 11s-1.9 12.9 2.6 18.4 19.2 8.4 21.6 17.3 3.1 24.4 2.8 30.5c-.2 5-1.6 14 2.6 19.9 3.9 5.1 10.7 7.1 16.8 4.9 5.9-1.9 10.3-3.4 13.5-10.8 2.2-5 1.6-11.8-1.6-16-5.7-7.4-14.4-9.8-17.4-13.4s-8.6-9.3-10.6-16.6c-1.8-6.5-1.2-18.9 0-24.1 1.4-5.9 5.6-13.7 8.6-15.3 5-2.6 13.7-1.8 17.5-1.8s7.7-1.6 9.4-5.1.2-9.8-2.6-12.8-6.1-3.3-9.2-2.7-6.9 3.9-8.6 7-3.6 8.4-6.7 10c-3.4 1.8-7.2 2.6-11 2.2-2.9-.4-5.7-1-8.5-1.9" fill="url(#j)"/><path d="m116.8 194.6c2.4 3.8 3.6 5.1 8.7 6.2s10 1.4 13 5.3 4.1 9.1 7.9 13c2.6 2.6 5.6 4.7 8.8 6.3 3.3 1.6 7.3 1.2 11.8.2s7.9-3.1 12.2-1.8c2.4.8 5.9 4.4 5.9 9.4 0 3.9-3.1 8.1-5.3 10-3.6 3.2-8.1 4.3-12.8.1-7.8-7-6.5-9.2-9.9-12.1-3.1-2.6-9.8-2.6-15.1-1s-8.9 7.2-14.3 7.6c-5 .3-8.6-.8-13.1-3.7-4.7-3.1-5.2-13.1-4.6-18.8s2.4-9.5 2.2-13.3c-.2-3.4-.4-7.6-4.1-10s-9.2-3.2-11.9-7c-3-4.1-3.2-9.6-.5-13.8 1.8-3 5.2-4.7 8.6-4.2 3.1.3 8.9 2.1 10.6 8.1 1.4 4.9 0 9.8 0 12.6-.1 3.2.1 4.1 1.9 6.9z" fill="url(#k)"/></svg>