<?xml version="1.0" encoding="utf-8"?>
<!-- Generator: Adobe Illustrator 24.0.0, SVG Export Plug-In . SVG Version: 6.00 Build 0)  -->
<svg version="1.1" id="Layer_1" xmlns="http://www.w3.org/2000/svg" xmlns:xlink="http://www.w3.org/1999/xlink" x="0px" y="0px"
	 viewBox="0 0 635 251.3" style="enable-background:new 0 0 635 251.3;" xml:space="preserve">
<style type="text/css">
	.st0{fill:url(#SVGID_1_);}
	.st1{fill:url(#SVGID_2_);}
	.st2{fill:url(#SVGID_3_);}
	.st3{fill:url(#SVGID_4_);}
	.st4{fill:url(#SVGID_5_);}
	.st5{fill:url(#SVGID_6_);}
	.st6{fill:url(#SVGID_7_);}
	.st7{fill:url(#SVGID_8_);}
	.st8{fill:url(#SVGID_9_);}
	.st9{fill:url(#SVGID_10_);}
	.st10{fill:#9BA4CE;}
	.st11{font-family:'Seravek-Medium';}
	.st12{font-size:127px;}
	.st13{font-size:120px;}
</style>
<title>Logo_blue</title>
<linearGradient id="SVGID_1_" gradientUnits="userSpaceOnUse" x1="42.8924" y1="598.9764" x2="144.6629" y2="598.9764" gradientTransform="matrix(1 0 0 1 0 -555.43)">
	<stop  offset="0" style="stop-color:#635EFA"/>
	<stop  offset="1" style="stop-color:#01B3FB"/>
</linearGradient>
<path class="st0" d="M69.1,69.5C66,71.1,54.2,75,45.8,65.6c-4.8-5.4-3.7-20.5,3.2-24.7c4.6-2.9,14.5-5.7,21.3,0S78.2,55.3,84.6,59
	c6.1,3.5,13.4,1.6,20-3.9s10.1-7.9,8.4-16.5s-5.1-18.5,1.7-24.9s16.4-4.4,20-2.9c5.4,2.3,11,9.5,9.9,19.8S130.1,42.4,124,44.3
	s-8.2,5.5-8.8,9.7c-0.5,3.7,1.4,12.3-1.3,18.5c-1.1,2.5-3.2,6-9.1,5.3c-5.6-0.6-17-13.8-22.2-13.6S72.6,67.7,69.1,69.5z"/>
<linearGradient id="SVGID_2_" gradientUnits="userSpaceOnUse" x1="68.16" y1="566.89" x2="91.08" y2="566.89" gradientTransform="matrix(1 0 0 1 0 -555.43)">
	<stop  offset="0" style="stop-color:#635EFA"/>
	<stop  offset="1" style="stop-color:#01B3FB"/>
</linearGradient>
<circle class="st1" cx="79.6" cy="11.5" r="11.5"/>
<linearGradient id="SVGID_3_" gradientUnits="userSpaceOnUse" x1="159.9" y1="566.89" x2="182.82" y2="566.89" gradientTransform="matrix(1 0 0 1 0 -555.43)">
	<stop  offset="0" style="stop-color:#635EFA"/>
	<stop  offset="1" style="stop-color:#01B3FB"/>
</linearGradient>
<circle class="st2" cx="171.4" cy="11.5" r="11.5"/>
<linearGradient id="SVGID_4_" gradientUnits="userSpaceOnUse" x1="4.23" y1="633.21" x2="27.15" y2="633.21" gradientTransform="matrix(1 0 0 1 0 -555.43)">
	<stop  offset="0" style="stop-color:#635EFA"/>
	<stop  offset="1" style="stop-color:#01B3FB"/>
</linearGradient>
<circle class="st3" cx="15.7" cy="77.8" r="11.5"/>
<linearGradient id="SVGID_5_" gradientUnits="userSpaceOnUse" x1="59.68" y1="701.14" x2="82.6" y2="701.14" gradientTransform="matrix(1 0 0 1 0 -555.43)">
	<stop  offset="0" style="stop-color:#635EFA"/>
	<stop  offset="1" style="stop-color:#01B3FB"/>
</linearGradient>
<circle class="st4" cx="71.1" cy="145.7" r="11.5"/>
<linearGradient id="SVGID_6_" gradientUnits="userSpaceOnUse" x1="4.23" y1="725.17" x2="27.15" y2="725.17" gradientTransform="matrix(1 0 0 1 0 -555.43)">
	<stop  offset="0" style="stop-color:#635EFA"/>
	<stop  offset="1" style="stop-color:#01B3FB"/>
</linearGradient>
<circle class="st5" cx="15.7" cy="169.7" r="11.5"/>
<linearGradient id="SVGID_7_" gradientUnits="userSpaceOnUse" x1="139.5" y1="733.92" x2="162.42" y2="733.92" gradientTransform="matrix(1 0 0 1 0 -555.43)">
	<stop  offset="0" style="stop-color:#635EFA"/>
	<stop  offset="1" style="stop-color:#01B3FB"/>
</linearGradient>
<circle class="st6" cx="151" cy="178.5" r="11.5"/>
<linearGradient id="SVGID_8_" gradientUnits="userSpaceOnUse" x1="69.89" y1="789.6" x2="92.81" y2="789.6" gradientTransform="matrix(1 0 0 1 0 -555.43)">
	<stop  offset="0" style="stop-color:#635EFA"/>
	<stop  offset="1" style="stop-color:#01B3FB"/>
</linearGradient>
<circle class="st7" cx="81.3" cy="234.2" r="11.5"/>
<linearGradient id="SVGID_9_" gradientUnits="userSpaceOnUse" x1="14.6031" y1="704.3141" x2="82.21" y2="704.3141" gradientTransform="matrix(1 0 0 1 0 -555.43)">
	<stop  offset="0" style="stop-color:#635EFA"/>
	<stop  offset="1" style="stop-color:#01B3FB"/>
</linearGradient>
<path class="st8" d="M35.7,106.8c-3.7-1-6.9-3.4-11.9-1c-4,1.9-6.5,6-8.1,11s-1.9,12.9,2.6,18.4s19.2,8.4,21.6,17.3
	s3.1,24.4,2.8,30.5c-0.2,5-1.6,14,2.6,19.9c3.9,5.1,10.7,7.1,16.8,4.9c5.9-1.9,10.3-3.4,13.5-10.8c2.2-5,1.6-11.8-1.6-16
	c-5.7-7.4-14.4-9.8-17.4-13.4S48,158.3,46,151c-1.8-6.5-1.2-18.9,0-24.1c1.4-5.9,5.6-13.7,8.6-15.3c5-2.6,13.7-1.8,17.5-1.8
	s7.7-1.6,9.4-5.1s0.2-9.8-2.6-12.8s-6.1-3.3-9.2-2.7s-6.9,3.9-8.6,7s-3.6,8.4-6.7,10c-3.4,1.8-7.2,2.6-11,2.2
	c-2.9-0.4-5.7-1-8.5-1.9"/>
<linearGradient id="SVGID_10_" gradientUnits="userSpaceOnUse" x1="93.6875" y1="761.983" x2="185.0901" y2="761.983" gradientTransform="matrix(1 0 0 1 0 -555.43)">
	<stop  offset="0" style="stop-color:#635EFA"/>
	<stop  offset="1" style="stop-color:#01B3FB"/>
</linearGradient>
<path class="st9" d="M116.8,194.6c2.4,3.8,3.6,5.1,8.7,6.2s10,1.4,13,5.3s4.1,9.1,7.9,13c2.6,2.6,5.6,4.7,8.8,6.3
	c3.3,1.6,7.3,1.2,11.8,0.2s7.9-3.1,12.2-1.8c2.4,0.8,5.9,4.4,5.9,9.4c0,3.9-3.1,8.1-5.3,10c-3.6,3.2-8.1,4.3-12.8,0.1
	c-7.8-7-6.5-9.2-9.9-12.1c-3.1-2.6-9.8-2.6-15.1-1s-8.9,7.2-14.3,7.6c-5,0.3-8.6-0.8-13.1-3.7c-4.7-3.1-5.2-13.1-4.6-18.8
	s2.4-9.5,2.2-13.3c-0.2-3.4-0.4-7.6-4.1-10s-9.2-3.2-11.9-7c-3-4.1-3.2-9.6-0.5-13.8c1.8-3,5.2-4.7,8.6-4.2
	c3.1,0.3,8.9,2.1,10.6,8.1c1.4,4.9,0,9.8,0,12.6C114.8,190.9,115,191.8,116.8,194.6z"/>
<g>
	<text transform="matrix(0.87 0 0 1 152.96 120.2397)" class="st10 st11 st12">Rubidium</text>
</g>
<g>
	<text transform="matrix(0.87 0 0 1 407.7842 223.7099)" class="st10 st11 st13">Web</text>
</g>
</svg>
