<svg id="Layer_1" data-name="Layer 1" xmlns="http://www.w3.org/2000/svg" xmlns:xlink="http://www.w3.org/1999/xlink" viewBox="0 0 467 251.34"><defs><style>.cls-1{fill:url(#linear-gradient);}.cls-2{fill:url(#linear-gradient-2);}.cls-3{fill:url(#linear-gradient-3);}.cls-4{fill:url(#linear-gradient-4);}.cls-5{fill:url(#linear-gradient-5);}.cls-6{fill:url(#linear-gradient-6);}.cls-7{fill:url(#linear-gradient-7);}.cls-8{fill:url(#linear-gradient-8);}.cls-9{fill:url(#linear-gradient-9);}.cls-10{fill:url(#linear-gradient-10);}.cls-11{fill:url(#linear-gradient-11);}.cls-12{isolation:isolate;font-size:60.96px;font-family:Seravek-Medium, Seravek;font-weight:500;}.cls-13{letter-spacing:0em;}.cls-14{letter-spacing:-0.01em;}.cls-15{letter-spacing:-0.03em;}.cls-16{letter-spacing:-0.01em;}</style><linearGradient id="linear-gradient" x1="42.91" y1="193.01" x2="144.69" y2="193.01" gradientTransform="matrix(1, 0, 0, -1, 0, 236.57)" gradientUnits="userSpaceOnUse"><stop offset="0" stop-color="#635efa"/><stop offset="1" stop-color="#01b3fb"/></linearGradient><linearGradient id="linear-gradient-2" x1="68.16" y1="225.11" x2="91.08" y2="225.11" xlink:href="#linear-gradient"/><linearGradient id="linear-gradient-3" x1="159.9" y1="225.11" x2="182.82" y2="225.11" xlink:href="#linear-gradient"/><linearGradient id="linear-gradient-4" x1="138.14" y1="168.88" x2="161.06" y2="168.88" xlink:href="#linear-gradient"/><linearGradient id="linear-gradient-5" x1="4.23" y1="158.79" x2="27.15" y2="158.79" xlink:href="#linear-gradient"/><linearGradient id="linear-gradient-6" x1="59.68" y1="90.86" x2="82.6" y2="90.86" xlink:href="#linear-gradient"/><linearGradient id="linear-gradient-7" x1="4.23" y1="66.83" x2="27.15" y2="66.83" xlink:href="#linear-gradient"/><linearGradient id="linear-gradient-8" x1="139.5" y1="58.08" x2="162.42" y2="58.08" xlink:href="#linear-gradient"/><linearGradient id="linear-gradient-9" x1="69.89" y1="2.4" x2="92.81" y2="2.4" xlink:href="#linear-gradient"/><linearGradient id="linear-gradient-10" x1="14.6" y1="87.67" x2="82.19" y2="87.67" xlink:href="#linear-gradient"/><linearGradient id="linear-gradient-11" x1="93.64" y1="30.02" x2="185.04" y2="30.02" xlink:href="#linear-gradient"/></defs><title>Logo_blue</title><path class="cls-1" d="M69.08,69.47C66,71.08,54.19,75,45.83,65.6,41,60.22,42.16,45.14,49.06,40.87c4.63-2.86,14.53-5.7,21.26,0s7.85,14.45,14.23,18.15c6.1,3.53,13.39,1.62,20-3.9s10.08-7.94,8.37-16.53-5.14-18.47,1.71-24.94,16.36-4.37,20-2.85c5.45,2.29,11,9.51,9.89,19.78S130.08,42.4,124,44.3s-8.2,5.45-8.82,9.69c-.54,3.65,1.39,12.33-1.26,18.46-1.07,2.47-3.18,6-9.08,5.34C99.26,77.18,87.8,64,82.6,64.21S72.61,67.65,69.08,69.47Z"/><circle class="cls-2" cx="79.62" cy="11.46" r="11.46"/><circle class="cls-3" cx="171.36" cy="11.46" r="11.46"/><circle class="cls-4" cx="149.6" cy="67.69" r="11.46"/><circle class="cls-5" cx="15.69" cy="77.78" r="11.46"/><circle class="cls-6" cx="71.14" cy="145.71" r="11.46"/><circle class="cls-7" cx="15.69" cy="169.74" r="11.46"/><circle class="cls-8" cx="150.96" cy="178.49" r="11.46"/><circle class="cls-9" cx="81.35" cy="234.17" r="11.46"/><path class="cls-10" d="M35.71,106.84c-3.65-1-6.87-3.41-11.87-1-3.95,1.93-6.51,6-8.14,11s-1.93,12.85,2.55,18.45,19.23,8.44,21.59,17.27,3.1,24.45,2.8,30.52c-.25,5-1.57,14,2.6,19.91A15,15,0,0,0,62,207.94c5.88-1.95,10.27-3.39,13.54-10.79,2.21-5,1.62-11.79-1.57-16-5.66-7.37-14.44-9.81-17.38-13.41S48.05,158.29,46,151c-1.85-6.47-1.22-18.94,0-24.14,1.39-5.9,5.6-13.71,8.57-15.3,5-2.64,13.74-1.77,17.47-1.77s7.65-1.57,9.42-5.1.2-9.81-2.55-12.75-6.08-3.28-9.22-2.72-6.87,3.9-8.63,7-3.6,8.38-6.67,10a19.16,19.16,0,0,1-11,2.16,62.86,62.86,0,0,1-8.55-1.86"/><path class="cls-11" d="M116.85,194.64c2.42,3.77,3.63,5.05,8.73,6.23s10,1.37,13,5.3,4.06,9.09,7.85,13a34.09,34.09,0,0,0,8.83,6.28c3.34,1.57,7.26,1.18,11.77.2s7.93-3.14,12.17-1.77c2.39.78,5.91,4.4,5.89,9.42,0,3.94-3.14,8.07-5.3,10-3.56,3.2-8.14,4.33-12.83.11-7.81-7-6.52-9.2-9.94-12.08-3.09-2.61-9.81-2.55-15.11-1s-8.88,7.23-14.29,7.55c-5,.29-8.61-.8-13.07-3.68-4.72-3.05-5.21-13.09-4.62-18.79s2.43-9.52,2.16-13.34c-.24-3.42-.39-7.65-4.12-10s-9.24-3.21-11.88-7a12.22,12.22,0,0,1-.49-13.84,8.75,8.75,0,0,1,8.63-4.21c3.14.28,8.88,2.14,10.6,8.13,1.4,4.91,0,9.78,0,12.56C114.77,190.9,115,191.79,116.85,194.64Z"/><text class="cls-12" transform="translate(109.19 139.08) scale(0.87 1)"><tspan class="cls-13">R</tspan><tspan x="37.73" y="0">ubidium</tspan><tspan class="cls-14" x="262.37" y="0"> </tspan><tspan class="cls-15" x="274.56" y="0">W</tspan><tspan x="332.35" y="0">eb </tspan></text><text class="cls-12" transform="translate(286.12 194.03) scale(0.87 1)">P<tspan class="cls-16" x="33.53" y="0">r</tspan><tspan x="56.14" y="0">oject</tspan></text></svg>